<!-- Created with Inkscape (http://www.inkscape.org/) -->
<svg xmlns:rdf="http://www.w3.org/1999/02/22-rdf-syntax-ns#" xmlns="http://www.w3.org/2000/svg" version="1.1" xmlns:cc="http://creativecommons.org/ns#" xmlns:xlink="http://www.w3.org/1999/xlink" viewBox="0 0 400 400" xmlns:dc="http://purl.org/dc/elements/1.1/">
 <defs></defs>
 <metadata>
  <rdf:RDF>
   <cc:Work rdf:about="">
    <dc:format>image/svg+xml</dc:format>
    <dc:type rdf:resource="http://purl.org/dc/dcmitype/StillImage"/>
    <dc:title/>
   </cc:Work>
  </rdf:RDF>
 </metadata>
 <g fill="#006c69" transform="matrix(0.57256574,0,0,0.57256574,-1.4067562e-5,349.98077)">
  <g transform="matrix(7.9999999,0,0,7.9999999,-1.7198537e-4,-611.51861)">
   <path d="m50.25,24.875c0,13.94519-11.30481,25.25-25.25,25.25s-25.25-11.30481-25.25-25.25,11.30481-25.25,25.25-25.25,25.25,11.30481,25.25,25.25z" transform="matrix(1.729232,0,0,1.729232,0.43233302,0.68204843)" fill="#ffffff"/>
   <path d="m63.38254,43.8766-16.7958,6.3505,0-0.029,0.091-0.076c-0.033,0.01-0.055,0.029-0.086,0.033v0.044l-13.325,12.1745,3.7824-18.0334c-0.1807-0.735-0.2479-1.4877-0.1893-2.2164l-2.6871-16.3843,13.0391,12.3563-0.058,0.032-0.1238-0.04-0.01,0.1122-0.04,0.011c0.01,0.017,0.014,0.024,0.031,0.022v-0.044l0.1305-0.073,16.2405,5.752z" fill="#17806d"/>
   <path d="M34.83334,86.448449c23.615199,4.876425,46.707-10.302538,51.585299-33.908655,1.422602-6.883554,1.128501-13.726223-0.571698-20.085977l-9.809201,4.385813c0.9257,4.34713,0.9936,8.934864,0.03699,13.564084-3.697989,17.895014-21.20269,29.40129-39.10449,25.704612-17.901801-3.696678-29.4126-21.194546-25.7145-39.089463,3.6981-17.895019,21.2091-29.431782,39.110899-25.735204,4.382802,0.905052,8.371401,2.634887,11.8582,5.000577l10.866302-4.869327c-5.602601-5.121831-12.6139-8.824807-20.587701-10.47127302-23.615201-4.87652498-46.7133,10.33302602-51.5917,33.93924702-4.87834,23.606123,10.3065,46.689041,33.9217,51.565566zm40.1322-53.530309,9.6678-4.31934c-0.736699-1.994232-1.622701-3.916894-2.635701-5.775479l-9.643498,4.356325c1.047499,1.819899,1.922499,3.74216,2.611399,5.738494zm-4.8454-9.134389,9.7786-4.39221c-1.160499-1.730235-2.4324-3.386297-3.829899-4.937501l-10.270201,4.609628c1.592001,1.434748,3.041799,3.016638,4.3215,4.720083z" fill="#95918c"/>
  </g>
 </g>
</svg>
